<svg id="Layer_1" data-name="Layer 1" xmlns="http://www.w3.org/2000/svg" viewBox="0 0 1500 1500"><defs><style>.cls-1{fill:#0b97d4;}.cls-2{fill:#2e0c0a;}.cls-3{fill:#99c2ff;}.cls-4{fill:#fff;}.cls-5{fill:#f14f4d;}.cls-6{fill:#49bfa7;}.cls-7{fill:#ffcbb6;}.cls-8{fill:#adadad;}</style></defs><g id="Popup_2" data-name="Popup 2"><path class="cls-1" d="M576,218.13l37.31,315c1.2,10.17-11.63,18.38-28.64,18.34l-404-.93c-17,0-31.8-8.32-33-18.48l-37.31-315c-1.21-10.17,11.61-18.38,28.64-18.35l404,.94C560,199.69,574.75,208,576,218.13Z"/><path class="cls-2" d="M576,218.2l4.27,36-465.67-1.07-4.27-36c-1.21-10.2,9-18.44,22.76-18.41l415.76,1C562.6,199.69,574.75,208,576,218.2Z"/><ellipse class="cls-3" cx="147.71" cy="225.09" rx="6.56" ry="9.02" transform="translate(-96.07 339.35) rotate(-81.84)"/><ellipse class="cls-4" cx="172.82" cy="225.15" rx="6.56" ry="9.02" transform="translate(-74.58 364.26) rotate(-81.84)"/><ellipse class="cls-5" cx="197.93" cy="225.21" rx="6.56" ry="9.02" transform="translate(-53.09 389.16) rotate(-81.84)"/><polygon class="cls-2" points="277.47 329.17 211.73 329.01 210.78 321.01 276.52 321.16 277.47 329.17"/><polygon class="cls-4" points="331.91 329.29 291.16 329.2 290.21 321.19 330.96 321.29 331.91 329.29"/><polygon class="cls-4" points="388.22 329.42 347.47 329.33 346.53 321.32 387.27 321.42 388.22 329.42"/><polygon class="cls-4" points="450.35 329.57 401.95 329.45 401 321.45 449.4 321.56 450.35 329.57"/><polygon class="cls-4" points="490.43 329.66 460.43 329.59 459.48 321.58 489.48 321.65 490.43 329.66"/><polygon class="cls-5" points="465.1 454.09 416.7 453.98 415.75 445.97 464.15 446.08 465.1 454.09"/><polygon class="cls-2" points="505.17 454.18 475.18 454.12 474.23 446.11 504.23 446.18 505.17 454.18"/><polygon class="cls-4" points="389.76 360.55 341.36 360.44 340.41 352.43 388.81 352.54 389.76 360.55"/><polygon class="cls-4" points="429.83 360.64 399.83 360.57 398.89 352.57 428.89 352.64 429.83 360.64"/><polygon class="cls-2" points="531.88 329.75 501.89 329.69 500.94 321.68 530.94 321.75 531.88 329.75"/><polygon class="cls-2" points="554.85 298.83 208.06 298.03 207.07 289.73 553.86 290.53 554.85 298.83"/><polygon class="cls-5" points="413.69 314.42 209.94 313.95 208.96 305.65 412.71 306.12 413.69 314.42"/><polygon class="cls-5" points="284.84 391.43 219.1 391.28 218.15 383.27 283.89 383.42 284.84 391.43"/><polygon class="cls-4" points="339.28 391.56 298.53 391.46 297.58 383.45 338.33 383.55 339.28 391.56"/><polygon class="cls-4" points="395.6 391.69 354.85 391.59 353.9 383.58 394.65 383.68 395.6 391.69"/><polygon class="cls-2" points="385.58 438.55 344.84 438.45 343.89 430.45 384.64 430.54 385.58 438.55"/><polygon class="cls-4" points="441.9 438.68 401.15 438.58 400.2 430.58 440.95 430.67 441.9 438.68"/><polygon class="cls-2" points="328.63 360.56 215.43 360.3 214.45 351.99 327.65 352.25 328.63 360.56"/><polygon class="cls-5" points="486.88 376.84 217.32 376.21 216.33 367.91 485.89 368.53 486.88 376.84"/><polygon class="cls-5" points="292.22 453.69 226.47 453.54 225.53 445.53 291.27 445.69 292.22 453.69"/><polygon class="cls-4" points="346.66 453.82 305.91 453.72 304.96 445.72 345.71 445.81 346.66 453.82"/><polygon class="cls-4" points="402.97 453.95 362.22 453.85 361.27 445.85 402.02 445.94 402.97 453.95"/><polygon class="cls-4" points="497.98 423.19 222.81 422.56 221.82 414.25 496.99 414.89 497.98 423.19"/><polygon class="cls-5" points="334.46 438.73 224.69 438.48 223.71 430.17 333.48 430.43 334.46 438.73"/><polygon class="cls-5" points="299.59 515.95 233.85 515.8 232.9 507.8 298.64 507.95 299.59 515.95"/><polygon class="cls-2" points="192.86 297.85 152.11 297.75 151.16 289.75 191.91 289.84 192.86 297.85"/><polygon class="cls-2" points="200.23 360.11 159.48 360.02 158.54 352.01 199.28 352.11 200.23 360.11"/><polygon class="cls-4" points="207.61 422.37 166.86 422.28 165.91 414.27 206.66 414.37 207.61 422.37"/><polygon class="cls-4" points="214.98 484.64 174.23 484.54 173.28 476.54 214.03 476.63 214.98 484.64"/><polygon class="cls-2" points="410.35 516.21 369.6 516.12 368.65 508.11 409.4 508.2 410.35 516.21"/><polygon class="cls-4" points="354.03 516.08 313.28 515.99 312.33 507.98 353.08 508.07 354.03 516.08"/><polygon class="cls-4" points="576.97 485.62 230.18 484.82 229.2 476.52 575.99 477.32 576.97 485.62"/><polygon class="cls-4" points="435.82 501.21 232.06 500.74 231.08 492.43 434.83 492.9 435.82 501.21"/></g><g id="Gear"><path class="cls-6" d="M1185.53,592.38a12.7,12.7,0,0,1-.14,12.44l-18.63,31.08L1196.2,661l27.71-23.35a12.71,12.71,0,0,1,12.26-2.12l.14,0a12.71,12.71,0,0,1,8.63,8.87l8.8,35.16,38.55-3.09,3.08-36.11a12.74,12.74,0,0,1,7.11-10.14l.13-.06a12.7,12.7,0,0,1,12.44.14L1346.13,649l25.07-29.44-23.35-27.71a12.72,12.72,0,0,1-2.12-12.27s0-.09,0-.13a12.71,12.71,0,0,1,8.87-8.63l35.16-8.8-3.1-38.55-36.1-3.08a12.74,12.74,0,0,1-10.14-7.11l-.06-.13a12.7,12.7,0,0,1,.13-12.44l18.64-31.08-29.44-25.07L1302,467.86a12.73,12.73,0,0,1-12.27,2.12l-.13-.05a12.71,12.71,0,0,1-8.63-8.87l-8.8-35.15L1233.65,429l-3.08,36.1a12.74,12.74,0,0,1-7.11,10.14l-.13.06a12.7,12.7,0,0,1-12.44-.13l-31.08-18.64L1154.74,486l23.35,27.71a12.73,12.73,0,0,1,2.12,12.27s0,.09,0,.13a12.71,12.71,0,0,1-8.87,8.63l-35.16,8.8,3.09,38.55,36.11,3.08a12.74,12.74,0,0,1,10.14,7.11Zm48.53-37.32a29,29,0,1,1,31.23,26.59A29,29,0,0,1,1234.06,555.06Z"/><path class="cls-2" d="M1143.63,656.76a7.82,7.82,0,0,1-.09,7.66l-11.47,19.12L1150.19,699l17.06-14.37a7.79,7.79,0,0,1,7.54-1.3l.09,0a7.84,7.84,0,0,1,5.31,5.46l5.41,21.64,23.73-1.9,1.89-22.22a7.83,7.83,0,0,1,4.37-6.24l.08,0a7.82,7.82,0,0,1,7.66.08l19.13,11.47,15.43-18.12-14.37-17.05a7.83,7.83,0,0,1-1.31-7.55l0-.08a7.84,7.84,0,0,1,5.46-5.31l21.63-5.41-1.9-23.73-22.22-1.89a7.85,7.85,0,0,1-6.23-4.38.2.2,0,0,1,0-.08,7.82,7.82,0,0,1,.08-7.66l11.47-19.12-18.12-15.43-17,14.37a7.81,7.81,0,0,1-7.55,1.3l-.08,0a7.84,7.84,0,0,1-5.31-5.46L1197,554.31l-23.72,1.9-1.9,22.22a7.83,7.83,0,0,1-4.37,6.24l-.08,0a7.82,7.82,0,0,1-7.66-.08l-19.12-11.47-15.43,18.12,14.37,17.05a7.83,7.83,0,0,1,1.3,7.55l0,.08a7.82,7.82,0,0,1-5.46,5.31l-21.63,5.41,1.9,23.73,22.22,1.89a7.88,7.88,0,0,1,6.24,4.38Zm29.86-23a17.85,17.85,0,1,1,19.22,16.37A17.85,17.85,0,0,1,1173.49,633.79Z"/></g><path class="cls-6" d="M1038.75,845.77H632l30.26-221.24L822.58,607.8l105-11.25,52.39,4A117.46,117.46,0,0,1,1086,693l15.48,72.26.49,2.25A64.69,64.69,0,0,1,1038.75,845.77Z"/><path class="cls-7" d="M1038.75,845.77H893.13l.44-63.08,207.95-17.39.49,2.25A64.69,64.69,0,0,1,1038.75,845.77Z"/><path class="cls-7" d="M815.87,549.91c1.63,5,3.11,16.67,4.27,28.27.17,1.72.34,3.43.5,5.13,1.19,13,1.93,24.49,1.93,24.49,41.9,43.37,105-11.25,105-11.25-3-10.27-4.57-29.82-5.43-46.1-.78-14.78-1-26.86-1-26.86a11.53,11.53,0,0,0-5.89-2.58c-19.57-3.85-73.07,10.25-92.45,21.33-3.18,1.81-5.44,3.54-6.48,5.1A2.76,2.76,0,0,0,815.87,549.91Z"/><path class="cls-2" d="M815.87,549.91c-1.81,5.06,1.78,8.93,2.93,17.92,1,7.52,1.76,14.63,1.84,15.48a165.14,165.14,0,0,0,68-24.78,162.32,162.32,0,0,0,32.8-28c-.77-14.78-.15-6.9-.15-6.9a11.53,11.53,0,0,0-5.89-2.58c-37.81-7.37-72.2,8.76-92.45,21.33C820.45,543.86,817.25,546.05,815.87,549.91Z"/><path class="cls-2" d="M584.46,845.77H893.13c16.53,0,31-13.59,29.78-28.14l-15.51-190c-1-11.95-11-20.54-24-20.54h-327c-17.52,0-31.39,15.14-28.65,31.12l32.42,189C562,838.08,572.15,845.77,584.46,845.77Z"/><path class="cls-2" d="M868.38,821H976.6A10.45,10.45,0,0,1,987,831.47v3.85a10.45,10.45,0,0,1-10.45,10.45H868.38a0,0,0,0,1,0,0V821A0,0,0,0,1,868.38,821Z"/><path class="cls-8" d="M577.75,845.77H886.42c16.54,0,31-13.59,29.74-28.14l-15.83-190c-1-11.95-11-20.54-24.08-20.54h-327c-17.51,0-31.36,15.14-28.59,31.12l32.73,189C555.3,838.08,565.45,845.77,577.75,845.77Z"/><path class="cls-4" d="M686.08,740.39a32.75,32.75,0,0,0,41.61,21.31,34.47,34.47,0,0,0,22.25-42.39A32.73,32.73,0,0,0,708,697.55,34.45,34.45,0,0,0,686.08,740.39Z"/><path class="cls-2" d="M629.15,260.72s-47.75-108,81-176.41c48.81-25.92,104.45-36,159.4-30.09,103.78,11.1,276.74,64.47,203.95,303L1038.19,466,884.74,442.17,696.9,318.85Z"/><circle class="cls-2" cx="684.51" cy="104.6" r="94.6"/><path class="cls-7" d="M1148.06,434.73c-21.11,68.78-110.56,51.63-110.56,51.63-37.61,30.89-116.65,55.22-164.73,67.91a294.06,294.06,0,0,1-116.69,7.05C610,540.34,612,428.2,621.58,404.72c10-24.36,4.25-50,7.57-144,.36-10.3.83-21.43,1.45-33.48a107.17,107.17,0,0,1,1.38-12.6h0c4.48-26.51,18.48-50.49,37.36-71.67C803.17-7.3,1052.15,89.62,1051.66,290.85c-.11,48-8.61,85.24-10.25,92l-.16.64-.11.47C1092.28,317.31,1169.19,365.94,1148.06,434.73Z"/><path class="cls-2" d="M1112.13,453.23a2.5,2.5,0,0,1-1.38-4.58c1.28-.87,13.68-13.81,15.42-30,1.09-10.25-2.32-19.61-10.13-27.82a22.63,22.63,0,0,0-17.72-7.54c-22.48.62-47.52,29.67-47.77,30a2.5,2.5,0,0,1-3.81-3.24c1.09-1.27,26.76-31,51.45-31.72a27.67,27.67,0,0,1,21.47,9.09c8.95,9.41,12.8,20.2,11.44,32.1-2,17.42-15,31.64-17.6,33.37A2.46,2.46,0,0,1,1112.13,453.23Z"/><path class="cls-2" d="M1111.45,434a2.63,2.63,0,0,1-.77-.12,2.5,2.5,0,0,1-1.6-3.15c8.66-26.74-28-42.38-28.38-42.53a2.5,2.5,0,1,1,1.92-4.62c.41.17,41.29,17.57,31.21,48.69A2.49,2.49,0,0,1,1111.45,434Z"/><path class="cls-2" d="M742.61,444.67c-8.53,0-16.25-5-20.53-11.44-6.27-9.43-5-20.43,3.16-28,11.66-10.81,19.6-6.14,24.86-3,3.82,2.24,5,2.65,6.57,1.17,4.71-4.37.56-19-3.16-27.2a2.5,2.5,0,1,1,4.55-2.07c1.14,2.51,10.88,24.72,2,32.94-4.51,4.17-8.94,1.56-12.5-.53-5.14-3-10-5.88-18.93,2.4-7.64,7.08-6.25,15.79-2.4,21.59,4.64,7,14.21,11.84,23.55,7.62a2.5,2.5,0,0,1,2.06,4.56A22.38,22.38,0,0,1,742.61,444.67Z"/><path class="cls-4" d="M909.69,371.23c-14.21,20-30.27,31.1-45.87,35.77-1.88.58-3.76,1-5.62,1.43a61.55,61.55,0,0,1-6.87,1c-22.34,2.1-42.34-8-52.64-21.81a35.88,35.88,0,0,1-7.11-16.54c-1.13-8.24,1.33-16.65,8.5-23.88a47.1,47.1,0,0,1,11.49-8.36C874.59,305.16,909.69,371.23,909.69,371.23Z"/><path class="cls-4" d="M739.7,357.88c-9,16.39-18.79,26.64-28.49,32.24-.84.48-1.68.94-2.52,1.35a40.22,40.22,0,0,1-6.8,2.7c-23.38,6.78-44-11.45-47.32-32a33.41,33.41,0,0,1,2.72-19.87,32.25,32.25,0,0,1,3.45-5.66,38.54,38.54,0,0,1,8.46-8.15C715.29,295.37,739.7,357.88,739.7,357.88Z"/><path class="cls-2" d="M931.13,312.49a4,4,0,0,1-2.31-.73,133.7,133.7,0,0,0-40-17.53c-30.91-7.81-58.66-2.6-82.48,15.48a4,4,0,1,1-4.83-6.37C827,283.94,858,278.13,891,286.54a139.13,139.13,0,0,1,42.43,18.69,4,4,0,0,1-2.31,7.26Z"/><path class="cls-2" d="M745.09,306a4,4,0,0,1-3.16-1.54c-16.56-21.25-37.69-30.56-62.8-27.68a91.27,91.27,0,0,0-33.63,11,4,4,0,0,1-4.2-6.81,98.06,98.06,0,0,1,36.61-12.11c19.4-2.3,47.34,1.17,70.33,30.67a4,4,0,0,1-3.15,6.46Z"/><rect class="cls-2" x="356.17" y="845.77" width="949.41" height="93.64" rx="26.01"/><path class="cls-5" d="M383.48,939.41h894.78a0,0,0,0,1,0,0v39.67a25.36,25.36,0,0,1-25.36,25.36H408.84a25.36,25.36,0,0,1-25.36-25.36V939.41A0,0,0,0,1,383.48,939.41Z"/><path class="cls-2" d="M872.67,382.94A37,37,0,0,1,863.82,407c-1.88.58-3.76,1-5.62,1.43a61.55,61.55,0,0,1-6.87,1c-22.34,2.1-42.34-8-52.64-21.81a38.22,38.22,0,0,1-.29-4.69,37.14,37.14,0,1,1,74.27,0Z"/><path class="cls-2" d="M721.66,365a33.49,33.49,0,0,1-13,26.52,40.22,40.22,0,0,1-6.8,2.7c-23.38,6.78-44-11.45-47.32-32A33.6,33.6,0,0,1,721.66,365Z"/><path class="cls-2" d="M760.53,498.8h-.88c-22.78-.17-39.23-6.35-39.92-6.62a2.5,2.5,0,0,1,1.78-4.67,121.65,121.65,0,0,0,38.35,6.29h.73c28.9,0,53.51-9.94,73.18-29.56a2.5,2.5,0,0,1,3.53,3.54C811.69,493.33,781.58,498.8,760.53,498.8Z"/><path class="cls-2" d="M998.29,776.43a2.49,2.49,0,0,1-2.47-2.2l-11.25-93.66a2.5,2.5,0,0,1,5-.6l11.25,93.66a2.51,2.51,0,0,1-2.18,2.79Z"/><polygon class="cls-6" points="757.74 1289.89 755.37 1307.47 690.56 1334.73 655.46 1283.38 657.6 1277.21 757.74 1289.89"/><polygon class="cls-6" points="956.52 1290.56 952.75 1318.97 874.78 1327.59 881.13 1288.3 956.52 1290.56"/><path class="cls-2" d="M1082.9,1128.19,1152,1488.5a7.5,7.5,0,0,1-14.7,3L1059.4,1133a12,12,0,1,1,23.45-5.09C1082.86,1128,1082.89,1128.11,1082.9,1128.19Z"/><path class="cls-2" d="M608.85,1133,531,1491.5a7.5,7.5,0,0,1-14.69-3l69.07-360.31a12,12,0,1,1,23.57,4.52C608.89,1132.78,608.87,1132.92,608.85,1133Z"/><path class="cls-2" d="M334.88,1488l68.45-437,.54-3.43c.21-1.32.38-2.61.69-4a58.22,58.22,0,0,1,2.22-8.08,59.52,59.52,0,0,1,3.31-7.7,58.6,58.6,0,0,1,4.33-7.17A61.42,61.42,0,0,1,440,999.61a64.88,64.88,0,0,1,7.88-2.83,67.28,67.28,0,0,1,8.19-1.71,66.5,66.5,0,0,1,8.33-.58h6.95l27.66.07,110.62.25,221.23.52,221.24.51,110.62.26,27.65.06,6.95,0a66.42,66.42,0,0,1,8.09.6,63.12,63.12,0,0,1,7.95,1.69,62.21,62.21,0,0,1,7.64,2.78,59.53,59.53,0,0,1,24.73,20.41,55,55,0,0,1,4.17,7,59.17,59.17,0,0,1,5.29,15.28c.29,1.34.45,2.61.65,3.89l.52,3.43,66.05,437.42a7.5,7.5,0,0,1-14.83,2.28l-68.48-437.25-.54-3.41c-.16-1-.29-2-.5-2.92a42,42,0,0,0-3.77-10.74,39.14,39.14,0,0,0-3-4.88,41.9,41.9,0,0,0-17.46-14.28,46.15,46.15,0,0,0-5.36-1.91,47.91,47.91,0,0,0-5.57-1.17,46.87,46.87,0,0,0-5.69-.38h-6.88l-27.65.06-110.62.26-221.24.51-221.23.52-110.62.26-27.66.06-6.87,0a47.07,47.07,0,0,0-5.45.4,46,46,0,0,0-5.33,1.15,44.06,44.06,0,0,0-5.12,1.86A40,40,0,0,0,432,1032.84a36.5,36.5,0,0,0-2.78,4.66,35.87,35.87,0,0,0-2.12,5,36.67,36.67,0,0,0-1.42,5.25c-.2.86-.32,1.86-.47,2.81l-.51,3.41L358.6,1491.61a12,12,0,0,1-23.73-3.58Z"/><rect class="cls-5" x="560.36" y="1048.66" width="547.53" height="81.94" rx="40.97"/><path class="cls-5" d="M1001.39,1005.09c4.44,24.66-.48,44.81-12,50.07a17.13,17.13,0,0,1-8.91,1.3l-23.93,234.1H853.85l-3.07-180.47c-.24-14.29-1-19.46-1.81-33.72a52.84,52.84,0,0,1,3.51-22.51c1.89-4.79-.35-1.77,1.89-4.79l-39.8,13.72a17.94,17.94,0,0,0-9,14.21l-47.85,212.89L657.6,1277.21l21.9-220.65a61.49,61.49,0,0,1,27.85-51.47Z"/><path class="cls-6" d="M603.75,1408.51l156.1-34a13.53,13.53,0,0,0,10.06-16.27L760.05,1313a7.37,7.37,0,0,0-10-5.4c-15.09,6.29-39.51,5.53-39.51,5.53-15.54-13.87-41.45-24.64-55.1-29.7a8.84,8.84,0,0,0-11.59,6.09l-10.54,38.24c-37.33,18.75-45.07,48.13-45.83,66.73a15.08,15.08,0,0,0,0,1.91A13.59,13.59,0,0,0,603.75,1408.51Z"/><path class="cls-2" d="M603.75,1408.51l156.1-34a13.53,13.53,0,0,0,10.06-16.27l-.33-1.54-182,39.66A13.59,13.59,0,0,0,603.75,1408.51Z"/><path class="cls-6" d="M799.14,1392.48l148.73-6c6.84-.27,12.14-6.64,11.83-14.24l-1.86-46.3c-.18-4.71-4.16-8.06-8.3-7.08-14.85,3.53-37.16-1.52-37.16-1.52-12.06-16.38-34.14-31.55-45.87-38.93-4.2-2.65-9.5-.83-11.61,3.94l-15.75,35.78c-37.26,11.88-49,39.44-52.69,57.62a13.69,13.69,0,0,0-.26,1.88C785.62,1385.68,791.62,1392.78,799.14,1392.48Z"/><path class="cls-2" d="M648.26,1364.49a2.5,2.5,0,0,1-.15-5c21.41-1.31,38-9.56,49.3-24.52a60.57,60.57,0,0,0,10.69-22.37,2.5,2.5,0,0,1,4.92.93,64.5,64.5,0,0,1-11.48,24.26c-8.4,11.21-24.44,24.93-53.13,26.69Z"/><path class="cls-2" d="M858.59,1359.24c-.93,0-1.86,0-2.81,0a2.5,2.5,0,1,1,.19-5c42.55,1.61,53.56-35.9,54-37.5a2.5,2.5,0,1,1,4.81,1.34C914.68,1318.45,902.84,1359.24,858.59,1359.24Z"/><path class="cls-2" d="M799.14,1392.48l148.73-6c6.84-.27,12.14-6.64,11.83-14.24l-.06-1.58-173.44,7C785.62,1385.68,791.62,1392.78,799.14,1392.48Z"/><path class="cls-2" d="M1051.66,290.85c-.11,48-8.61,85.24-10.25,92l-.16.64s-11.71,19.72-21.53,17.34c-8.13-2-11-21.13-11.63-25.71C1004,346.88,996.47,296.22,980,272.7c-21.06-30.11-55.84-14.26-123-42.79a295.79,295.79,0,0,1-78.56-49.48,520,520,0,0,1-69.88,45.46,520.62,520.62,0,0,1-79.39,34.83c.36-10.3.83-21.43,1.45-33.48a107.17,107.17,0,0,1,1.38-12.6h0c4.48-26.51,18.48-50.49,37.36-71.67C803.17-7.3,1052.15,89.62,1051.66,290.85Z"/><circle class="cls-2" cx="1081.66" cy="145.73" r="101.71"/><path class="cls-4" d="M1090.84,253a6.61,6.61,0,0,1-.76-.05c-42.29-5.34-72.59-22-90-49.56-30.65-48.35-10.41-112-9.53-114.72a6,6,0,0,1,11.41,3.73c-.27.84-19.29,61.18,8.29,104.62,15.46,24.35,42.84,39.16,81.38,44a6,6,0,0,1-.74,12Z"/><path class="cls-5" d="M842.69,457c-1.84,0-3.68-.09-5.54-.26-37.33-3.45-64.5-40.91-60.57-83.51s37.51-74.46,74.85-71c18.15,1.68,34.45,11.33,45.89,27.19S913.9,365.15,912,385.72h0C908.26,426.21,877.75,457,842.69,457Zm3.2-150c-32.51,0-60.83,28.82-64.33,66.72-3.68,39.85,21.46,74.88,56.05,78.07s65.73-26.63,69.41-66.48c1.79-19.37-3.1-38.18-13.76-52.95s-25.6-23.59-42.29-25.13C849.26,307,847.57,307,845.89,307Zm63.62,78.54h0Z"/><path class="cls-5" d="M673.71,436.6c-1.86,0-3.73-.09-5.61-.26C650,434.67,633.65,425,622.21,409.16s-16.58-35.76-14.68-56.33,10.69-39.28,24.75-52.68,32-20,50.09-18.32,34.45,11.33,45.9,27.18,16.58,35.75,14.68,56.33S732.26,404.62,718.2,418C705.51,430.12,689.89,436.6,673.71,436.6Zm3.08-150c-14.9,0-29.31,6-41.06,17.19-13.19,12.57-21.43,30.16-23.22,49.53s3.1,38.17,13.76,52.94,25.6,23.59,42.29,25.13,33.1-4.48,46.19-17,21.43-30.15,23.22-49.52h0c1.79-19.37-3.1-38.17-13.76-52.94s-25.6-23.59-42.29-25.14C680.2,286.65,678.49,286.57,676.79,286.57Z"/><path class="cls-5" d="M778.08,366a2.55,2.55,0,0,1-1.07-.23c-20.33-9.57-36.51-5.49-36.67-5.44a2.5,2.5,0,0,1-1.29-4.83c.73-.2,18-4.65,40.09,5.74a2.5,2.5,0,0,1-1.06,4.76Z"/><path class="cls-5" d="M909.69,373.73a2.5,2.5,0,0,1-.17-5l157.91-11.06a2.5,2.5,0,1,1,.35,5L909.87,373.73Z"/><circle class="cls-4" cx="1080.31" cy="471.96" r="8.47"/><path class="cls-4" d="M734,1285.33a2.51,2.51,0,0,1-2.44-3l44.84-201.13a61.12,61.12,0,0,1,41.38-45l37.4-11.66a2.5,2.5,0,0,1,1.49,4.78L819.22,1041a56.14,56.14,0,0,0-38,41.27l-44.84,201.13A2.5,2.5,0,0,1,734,1285.33Z"/><path class="cls-4" d="M943.24,1293.06h-.17a2.5,2.5,0,0,1-2.33-2.66l15.38-231a34.11,34.11,0,0,1,16.65-27.1l6-3.54a2.5,2.5,0,0,1,2.55,4.3l-6,3.54a29.12,29.12,0,0,0-14.21,23.13l-15.38,231A2.49,2.49,0,0,1,943.24,1293.06Z"/><path class="cls-4" d="M1088.78,768.87a2.5,2.5,0,0,1-2.46-2.06c0-.23-4.16-22.95-8.45-42.23C1072,698,1069.09,685.72,1063,674a114.22,114.22,0,0,0-19.5-27.36,109.1,109.1,0,0,0-32.12-22c-7.94-3.57-16.28-6-42.17-10.18-17.45-2.81-35.37-5.17-53.28-7a2.5,2.5,0,0,1,.52-5c18,1.86,36,4.24,53.56,7.07,26.44,4.26,35.07,6.79,43.42,10.55a114.63,114.63,0,0,1,33.62,23,119.76,119.76,0,0,1,20.4,28.58c6.59,12.76,9.67,26.62,15.26,51.76,4.31,19.38,8.45,42.2,8.49,42.43a2.51,2.51,0,0,1-2,2.91A3.42,3.42,0,0,1,1088.78,768.87Z"/></svg>